<svg width="20" height="20" viewBox="0 0 20 20" fill="none" xmlns="http://www.w3.org/2000/svg">
<path fill-rule="evenodd" clip-rule="evenodd" d="M9.35247 1.8518C9.52438 1.67989 9.75754 1.58331 10.0007 1.58331C10.2438 1.58331 10.4769 1.67989 10.6488 1.8518C10.8207 2.02371 10.9173 2.25687 10.9173 2.49998V2.57498L10.9173 2.57797C10.919 2.99239 11.0418 3.39729 11.2706 3.74281C11.4987 4.08722 11.8222 4.35765 12.2015 4.52107C12.589 4.69122 13.0185 4.7418 13.4349 4.66628C13.8527 4.59053 14.2382 4.39136 14.5418 4.09446L14.5418 4.09449L14.5477 4.08864L14.5976 4.03864L14.5979 4.03835C14.6831 3.95312 14.7842 3.88551 14.8955 3.83938C15.0067 3.79325 15.126 3.7695 15.2465 3.7695C15.3669 3.7695 15.4862 3.79325 15.5975 3.83938C15.7088 3.88551 15.8099 3.95312 15.895 4.03835L15.8956 4.03894C15.9808 4.12407 16.0485 4.22517 16.0946 4.33645C16.1407 4.44773 16.1645 4.56702 16.1645 4.68748C16.1645 4.80794 16.1407 4.92723 16.0946 5.03851C16.0485 5.14979 15.9808 5.25089 15.8956 5.33602L15.8953 5.33632L15.8453 5.38632L15.8453 5.38629L15.8395 5.3922C15.5426 5.69572 15.3434 6.08123 15.2677 6.49902C15.2014 6.86463 15.2323 7.24029 15.3559 7.58875C15.3644 7.65979 15.383 7.7294 15.4113 7.79543C15.5746 8.17634 15.8456 8.50121 16.1912 8.73003C16.5367 8.95886 16.9416 9.08165 17.356 9.08331L17.359 9.08331H17.5007C17.7438 9.08331 17.9769 9.17989 18.1488 9.3518C18.3207 9.52371 18.4173 9.75687 18.4173 9.99998C18.4173 10.2431 18.3207 10.4763 18.1488 10.6482C17.9769 10.8201 17.7438 10.9166 17.5007 10.9166L17.4257 10.9166L17.4227 10.9167C17.0082 10.9183 16.6033 11.0411 16.2578 11.2699C15.9134 11.498 15.643 11.8215 15.4795 12.2008C15.3094 12.5883 15.2588 13.0178 15.3343 13.4343C15.4101 13.8521 15.6093 14.2376 15.9062 14.5411L15.9061 14.5411L15.912 14.547L15.962 14.597L15.9623 14.5973C16.0475 14.6824 16.1151 14.7835 16.1613 14.8948C16.2074 15.0061 16.2311 15.1254 16.2311 15.2458C16.2311 15.3663 16.2074 15.4856 16.1613 15.5968C16.1151 15.7081 16.0475 15.8092 15.9623 15.8944L15.9617 15.8949C15.8766 15.9802 15.7755 16.0478 15.6642 16.0939C15.5529 16.14 15.4336 16.1638 15.3132 16.1638C15.1927 16.1638 15.0734 16.14 14.9621 16.0939C14.8508 16.0478 14.7497 15.9802 14.6646 15.8949L14.6643 15.8946L14.6143 15.8447L14.6143 15.8446L14.6084 15.8388C14.3049 15.5419 13.9194 15.3428 13.5016 15.267C13.0852 15.1915 12.6557 15.2421 12.2682 15.4122C11.8889 15.5756 11.5654 15.8461 11.3373 16.1905C11.1084 16.536 10.9856 16.9409 10.984 17.3553L10.984 17.3583V17.5C10.984 17.7431 10.8874 17.9763 10.7155 18.1482C10.5436 18.3201 10.3104 18.4166 10.0673 18.4166C9.8242 18.4166 9.59105 18.3201 9.41914 18.1482C9.24723 17.9763 9.15065 17.7431 9.15065 17.5V17.425L9.15045 17.4074C9.14048 16.9812 9.00249 16.5677 8.75444 16.2209C8.51098 15.8805 8.17254 15.6197 7.78173 15.471C7.39899 15.3072 6.97635 15.2593 6.56635 15.3337C6.14857 15.4094 5.76306 15.6086 5.45954 15.9055L5.4595 15.9055L5.45365 15.9113L5.40365 15.9613L5.40336 15.9616C5.31823 16.0468 5.21713 16.1145 5.10585 16.1606C4.99456 16.2067 4.87528 16.2305 4.75482 16.2305C4.63435 16.2305 4.51507 16.2067 4.40379 16.1606C4.29251 16.1145 4.19141 16.0468 4.10628 15.9616L4.10569 15.961C4.02046 15.8759 3.95285 15.7748 3.90671 15.6635C3.86058 15.5522 3.83684 15.4329 3.83684 15.3125C3.83684 15.192 3.86058 15.0727 3.90671 14.9615C3.95285 14.8502 4.02046 14.7491 4.10569 14.6639L4.10598 14.6636L4.15598 14.6136L4.15601 14.6137L4.1618 14.6078C4.4587 14.3042 4.65787 13.9187 4.73362 13.5009C4.80914 13.0845 4.75855 12.655 4.58841 12.2675C4.42499 11.8882 4.15455 11.5647 3.81015 11.3366C3.46463 11.1078 3.05973 10.985 2.64531 10.9833H2.64232H2.50065C2.25754 10.9833 2.02438 10.8867 1.85247 10.7148C1.68056 10.5429 1.58398 10.3098 1.58398 10.0666C1.58398 9.82353 1.68056 9.59037 1.85247 9.41847C2.02438 9.24656 2.25754 9.14998 2.50065 9.14998H2.57565L2.59319 9.14977C3.01947 9.1398 3.43289 9.00182 3.77971 8.75377C4.1201 8.51031 4.38088 8.17187 4.52958 7.78106C4.69343 7.39832 4.7413 6.97569 4.66696 6.56568C4.5912 6.1479 4.39204 5.76239 4.09513 5.45886L4.09516 5.45883L4.08931 5.45298L4.03931 5.40298L4.03902 5.40269C3.95379 5.31755 3.88618 5.21646 3.84005 5.10518C3.79392 4.99389 3.77017 4.87461 3.77017 4.75415C3.77017 4.63368 3.79392 4.5144 3.84005 4.40312C3.88618 4.29184 3.95379 4.19074 4.03902 4.1056L4.03961 4.10501C4.12474 4.01979 4.22584 3.95217 4.33712 3.90604C4.4484 3.85991 4.56769 3.83617 4.68815 3.83617C4.80862 3.83617 4.9279 3.85991 5.03918 3.90604C5.15046 3.95217 5.25156 4.01979 5.33669 4.10501L5.33699 4.10531L5.38699 4.15531L5.38696 4.15534L5.39287 4.16113C5.6964 4.45803 6.0819 4.6572 6.49969 4.73295C6.8653 4.79924 7.24096 4.76836 7.58943 4.6447C7.66046 4.63624 7.73007 4.61763 7.7961 4.58933C8.17702 4.42608 8.50188 4.155 8.7307 3.80948C8.95953 3.46395 9.08233 3.05906 9.08398 2.64464L9.08398 2.64165V2.49998C9.08398 2.25687 9.18056 2.02371 9.35247 1.8518ZM16.8535 12.8028L16.1674 12.5L16.8567 12.7954C16.9047 12.6834 16.9844 12.5878 17.086 12.5205C17.1873 12.4535 17.306 12.4174 17.4275 12.4166H17.5007C18.1416 12.4166 18.7563 12.162 19.2095 11.7088C19.6627 11.2556 19.9173 10.6409 19.9173 9.99998C19.9173 9.35904 19.6627 8.74435 19.2095 8.29114C18.7563 7.83793 18.1416 7.58331 17.5007 7.58331H17.3608C17.2393 7.5826 17.1207 7.5465 17.0194 7.47941C16.9463 7.43101 16.8845 7.368 16.8377 7.29475C16.8271 7.23837 16.8101 7.18325 16.7868 7.13049C16.7364 7.01624 16.7213 6.88951 16.7436 6.76663C16.7657 6.64483 16.8234 6.53236 16.9095 6.44345L16.9557 6.39727L16.956 6.39697C17.1805 6.17259 17.3587 5.90617 17.4802 5.61292C17.6019 5.31954 17.6645 5.00507 17.6645 4.68748C17.6645 4.36989 17.6019 4.05542 17.4802 3.76204C17.3586 3.46866 17.1804 3.20213 16.9557 2.97769C16.7314 2.75327 16.465 2.57523 16.1719 2.45372C15.8785 2.3321 15.5641 2.2695 15.2465 2.2695C14.9289 2.2695 14.6144 2.3321 14.321 2.45372C14.0278 2.57528 13.7614 2.75343 13.537 2.97799L13.5367 2.97828L13.4905 3.02449C13.4016 3.11053 13.2891 3.16827 13.1673 3.19035C13.0445 3.21263 12.9177 3.19759 12.8035 3.14717L12.8035 3.14713L12.7961 3.14396C12.6841 3.09594 12.5885 3.01621 12.5212 2.91459C12.4541 2.81329 12.418 2.69464 12.4173 2.57315V2.49998C12.4173 1.85904 12.1627 1.24435 11.7095 0.791138C11.2563 0.337926 10.6416 0.083313 10.0007 0.083313C9.35971 0.083313 8.74502 0.337926 8.29181 0.791138C7.8386 1.24435 7.58398 1.85904 7.58398 2.49998V2.63982C7.58327 2.7613 7.54717 2.87995 7.48009 2.98126C7.43168 3.05434 7.36867 3.11611 7.29542 3.16289C7.23905 3.17349 7.18392 3.19055 7.13116 3.21383C7.01691 3.26426 6.89018 3.2793 6.7673 3.25702C6.64552 3.23493 6.53306 3.1772 6.44416 3.09116L6.39794 3.04494C6.1735 2.82025 5.90697 2.642 5.61359 2.52038C5.32021 2.39877 5.00574 2.33617 4.68815 2.33617C4.37056 2.33617 4.05609 2.39877 3.76271 2.52038C3.46946 2.64195 3.20304 2.8201 2.97865 3.04465C2.7541 3.26903 2.57595 3.53546 2.45439 3.82871C2.33277 4.12209 2.27017 4.43656 2.27017 4.75415C2.27017 5.07173 2.33277 5.38621 2.45439 5.67959C2.57601 5.97296 2.75426 6.23949 2.97895 6.46394L3.02516 6.51015C3.1112 6.59905 3.16894 6.71151 3.19102 6.8333C3.2133 6.95617 3.19826 7.08291 3.14784 7.19716C3.14146 7.21161 3.13554 7.22626 3.13008 7.24109C3.08679 7.3588 3.00909 7.46075 2.90709 7.53371C2.807 7.6053 2.68805 7.64572 2.56517 7.64998H2.50065C1.85971 7.64998 1.24502 7.90459 0.79181 8.35781C0.338597 8.81102 0.0839844 9.42571 0.0839844 10.0666C0.0839844 10.7076 0.338597 11.3223 0.79181 11.7755C1.24502 12.2287 1.85971 12.4833 2.50065 12.4833H2.64049C2.76197 12.484 2.88063 12.5201 2.98193 12.5872C3.08355 12.6545 3.16328 12.7501 3.2113 12.8621L3.21126 12.8621L3.2145 12.8695C3.26493 12.9837 3.27997 13.1105 3.25769 13.2333C3.23561 13.3551 3.17787 13.4676 3.09182 13.5565L3.04562 13.6027L3.04537 13.6029L3.04532 13.603C2.82077 13.8274 2.64262 14.0938 2.52106 14.387C2.39944 14.6804 2.33684 14.9949 2.33684 15.3125C2.33684 15.6301 2.39944 15.9445 2.52106 16.2379C2.64257 16.531 2.82061 16.7974 3.04503 17.0217C3.26947 17.2464 3.536 17.4246 3.82938 17.5462C4.12276 17.6679 4.43723 17.7305 4.75482 17.7305C5.07241 17.7305 5.38688 17.6679 5.68026 17.5462C5.97363 17.4246 6.24016 17.2464 6.46461 17.0217L6.51082 16.9755C6.59972 16.8894 6.71218 16.8317 6.83397 16.8096C6.95685 16.7873 7.08358 16.8024 7.19783 16.8528C7.21228 16.8592 7.22694 16.8651 7.24177 16.8705C7.35947 16.9138 7.46143 16.9915 7.53438 17.0935C7.60597 17.1936 7.64639 17.3126 7.65065 17.4355V17.5C7.65065 18.1409 7.90526 18.7556 8.35848 19.2088C8.81169 19.662 9.42638 19.9166 10.0673 19.9166C10.7083 19.9166 11.3229 19.662 11.7762 19.2088C12.2294 18.7556 12.484 18.1409 12.484 17.5V17.3601C12.4847 17.2387 12.5208 17.12 12.5879 17.0187C12.6552 16.9171 12.7507 16.8374 12.8628 16.7893L12.8628 16.7894L12.8701 16.7861C12.9844 16.7357 13.1111 16.7207 13.234 16.7429C13.3558 16.765 13.4683 16.8228 13.5572 16.9088L13.6034 16.955C13.8278 17.1797 14.0943 17.358 14.3877 17.4796C14.6811 17.6012 14.9956 17.6638 15.3132 17.6638C15.6307 17.6638 15.9452 17.6012 16.2386 17.4796C16.5318 17.358 16.7983 17.1799 17.0226 16.9553C17.2472 16.7309 17.4254 16.4645 17.5469 16.1713C17.6685 15.8779 17.7311 15.5634 17.7311 15.2458C17.7311 14.9282 17.6685 14.6138 17.5469 14.3204C17.4253 14.027 17.247 13.7605 17.0224 13.536L16.9761 13.4898C16.8901 13.4009 16.8324 13.2884 16.8103 13.1667C16.788 13.0438 16.803 12.9171 16.8535 12.8028ZM8.25 10C8.25 9.0335 9.0335 8.25 10 8.25C10.9665 8.25 11.75 9.0335 11.75 10C11.75 10.9665 10.9665 11.75 10 11.75C9.0335 11.75 8.25 10.9665 8.25 10ZM10 6.75C8.20507 6.75 6.75 8.20507 6.75 10C6.75 11.7949 8.20507 13.25 10 13.25C11.7949 13.25 13.25 11.7949 13.25 10C13.25 8.20507 11.7949 6.75 10 6.75Z" fill="#32394B"/>
</svg>
