<svg width="256" height="256" viewBox="0 0 256 256" fill="none" xmlns="http://www.w3.org/2000/svg">
<g clip-path="url(#clip0_15_581)">
<path d="M256 0H0V256H256V0Z" fill="#F1563C"/>
<path d="M158.204 69.8182H179.679C183.09 69.8182 185.699 69.8182 187.506 70.4205C189.312 71.0227 190.115 71.8257 190.717 73.6325C191.319 75.4393 191.319 78.049 191.319 81.4618V102.942C191.319 106.355 191.319 108.965 190.717 110.771C190.115 112.578 189.111 113.381 187.506 113.983C185.699 114.586 183.09 114.586 179.679 114.586H158.204C154.793 114.586 152.184 114.586 150.377 113.983C148.571 113.381 147.768 112.578 147.166 110.771C146.564 108.965 146.564 106.355 146.564 102.942V81.261C146.564 77.8483 146.564 75.2385 147.166 73.4317C147.768 71.625 148.772 70.822 150.377 70.2197C152.184 69.8182 154.793 69.8182 158.204 69.8182Z" fill="white"/>
<path d="M163.02 127.233C162.418 125.828 161.815 125.025 160.411 124.623C159.006 124.222 156.999 124.222 154.59 124.222C149.573 124.222 145.559 124.222 142.75 123.218C139.94 122.214 138.334 120.608 137.331 117.798C136.528 115.188 136.327 111.775 136.327 107.359V106.355C136.327 103.544 136.327 101.537 135.926 99.9308C135.324 98.5256 134.722 97.7226 133.317 97.3211C131.912 96.9196 129.704 96.9196 126.895 96.9196H118.666C115.857 96.9196 113.85 96.9196 112.244 97.3211C110.839 97.9233 110.037 98.5256 109.635 99.9308C109.234 101.336 109.234 103.544 109.234 106.355V106.556C109.234 111.374 109.234 115.188 108.23 117.798C107.227 120.608 105.621 122.214 102.812 123.218C101.005 123.82 98.597 124.021 95.7873 124.021C92.7769 124.021 90.1679 123.82 88.1609 123.218C85.3512 122.214 83.7457 120.608 82.7422 117.798C81.9394 115.188 81.7387 111.775 81.7387 107.359V106.355C81.7387 103.544 81.7387 101.537 81.3373 99.9308C80.7352 98.5256 80.1332 97.7226 78.7283 97.3211C77.3235 96.9196 75.1158 96.9196 72.3061 96.9196H64.0777C61.268 96.9196 59.2611 96.9196 57.6555 97.3211C56.2507 97.9233 55.4479 98.5256 55.0465 99.9308C54.6451 101.336 54.6451 103.544 54.6451 106.355V106.556C54.6451 111.374 54.6451 115.188 53.6417 117.798C52.6382 120.608 51.0326 122.214 48.2229 123.218C46.0153 124.021 43.0049 124.021 39.1917 124.222H36.7834C33.9737 124.222 31.9667 124.222 30.3612 124.623C28.9563 125.225 28.1536 125.828 27.7522 127.233C27.3508 128.638 27.3508 130.846 27.3508 133.657V141.888C27.3508 144.698 27.3508 146.706 27.7522 148.312C28.3543 149.717 28.9563 150.52 30.3612 150.921C31.766 151.323 33.9737 151.323 36.7834 151.323H45.0118C47.8215 151.323 49.8285 151.323 51.434 150.921C52.8389 150.319 53.6416 149.717 54.043 148.312C54.4444 146.906 54.4444 144.698 54.4444 141.888V140.884C54.4444 136.467 54.6451 133.055 55.4479 130.445C56.4513 127.634 58.0569 126.028 60.8666 125.025C62.8735 124.422 65.2819 124.222 68.493 124.222C71.3027 124.222 73.711 124.623 75.5172 125.025C78.3269 126.028 79.9325 127.634 80.9359 130.445C81.7387 133.055 81.9394 136.869 81.9394 141.687V141.888C81.9394 144.698 81.9394 146.706 82.3408 148.312C82.9429 149.717 83.545 150.52 84.9498 150.921C86.3547 151.323 88.5623 151.323 91.372 151.323H99.6004C102.41 151.323 104.417 151.323 106.023 150.921C107.427 150.319 108.23 149.717 108.632 148.312C109.033 146.906 109.033 144.698 109.033 141.888V140.884C109.033 136.467 109.234 132.854 110.037 130.445C111.04 127.634 112.646 126.028 115.455 125.025C117.462 124.422 119.87 124.222 123.082 124.222C125.891 124.222 128.3 124.623 130.106 125.025C132.916 126.028 134.521 127.634 135.525 130.445C136.327 133.055 136.528 136.869 136.528 141.687V141.888C136.528 144.698 136.528 146.706 136.929 148.312C137.532 149.717 138.134 150.52 139.538 150.921C140.943 151.323 143.151 151.323 145.961 151.323H154.189C156.999 151.323 159.006 151.323 160.611 150.921C162.016 150.319 162.819 149.717 163.22 148.312C163.622 146.906 163.622 144.698 163.622 141.888V133.657C163.622 130.846 163.622 128.638 163.02 127.233Z" fill="white"/>
<path d="M225.637 123.619C227.042 123.017 227.845 122.415 228.246 121.01C228.648 119.604 228.648 117.396 228.648 114.586V106.355C228.648 103.544 228.648 101.537 228.246 99.9308C227.644 98.5256 227.042 97.7226 225.637 97.3211C224.233 96.9196 222.025 96.9196 219.215 96.9196H210.987C208.177 96.9196 206.17 96.9196 204.565 97.3211C203.16 97.9233 202.357 98.5256 201.956 99.9308C201.554 101.336 201.554 103.344 201.554 105.753C201.554 110.771 201.554 114.786 200.551 117.597C199.547 120.407 197.942 122.013 195.132 123.017C192.523 123.82 189.111 124.021 184.696 124.021H183.893C181.083 124.021 179.077 124.021 177.471 124.422C176.066 125.025 175.263 125.627 174.862 127.032C174.461 128.437 174.461 130.646 174.461 133.456V141.687C174.461 144.497 174.461 146.505 174.862 148.111C175.464 149.516 176.066 150.319 177.471 150.721C178.876 151.122 181.083 151.122 183.893 151.122H184.094C188.911 151.122 192.724 151.122 195.333 152.126C198.142 153.13 199.748 154.736 200.751 157.546C201.554 159.754 201.554 162.766 201.755 166.58V168.989C201.755 171.8 201.755 173.807 202.156 175.413C202.758 176.818 203.36 177.621 204.765 178.023C206.17 178.424 208.378 178.424 211.187 178.424H219.416C222.226 178.424 224.233 178.424 225.838 178.023C227.243 177.421 228.046 176.818 228.447 175.413C228.849 174.008 228.848 171.8 228.848 168.989V160.758C228.848 157.948 228.849 155.94 228.447 154.334C227.845 152.929 227.243 152.126 225.838 151.724C224.433 151.323 222.226 151.323 219.416 151.323H218.412C213.997 151.323 210.585 151.122 207.976 150.319C205.167 149.315 203.561 147.709 202.558 144.899C201.956 142.891 201.755 140.482 201.755 137.27C201.755 134.46 202.156 132.051 202.558 130.244C203.561 127.434 205.167 125.828 207.976 124.824C210.585 124.021 214.399 123.82 219.215 123.82H219.416C222.025 124.021 224.233 124.021 225.637 123.619Z" fill="white"/>
<path d="M30.3626 162.565H186.101C187.907 162.565 189.312 163.971 189.312 165.777V174.209C189.312 176.016 187.907 177.421 186.101 177.421H30.3626C28.5564 177.421 27.1515 176.016 27.1515 174.209V165.777C27.1515 164.171 28.5564 162.565 30.3626 162.565Z" fill="white"/>
</g>
<defs>
<clipPath id="clip0_15_581">
<rect width="256" height="256" fill="white"/>
</clipPath>
</defs>
</svg>
